# AST/ASF file generated using VICON BodyLanguage
# -----------------------------------------------
:version 1.10
:name VICON
:units
  mass 1.0
  length 0.45
  angle deg
:documentation
   .ast/.asf automatically generated from VICON data using
   VICON BodyBuilder and BodyLanguage model FoxedUp or BRILLIANT.MOD
:root
   order TX TY TZ RX RY RZ
   axis XYZ
   position 0 0 0  
   orientation 0 0 0 
:bonedata
  begin
     id 1 
     name lhipjoint
     direction 0.635376 -0.686425 0.353719 
     length 2.47244 
     axis 0 0 0  XYZ
  end
  begin
     id 2 
     name lfemur
     direction 0.34202 -0.939693 0  
     length 7.25268  
     axis 0 0 20  XYZ
    dof rx ry rz
    limits (-160.0 20.0)
           (-70.0 70.0)
           (-60.0 70.0)
  end
  begin
     id 3 
     name ltibia
     direction 0.34202 -0.939693 0   
     length 7.6767   
     axis 0 0 20   XYZ
    dof rx
    limits (-10.0 170.0)
  end
  begin
     id 4 
     name lfoot
     direction 0.0803374 -0.220725 0.972022   
     length 2.22945   
     axis -90 7.62852e-016 20   XYZ
    dof rx rz
    limits (-45.0 90.0)
           (-70.0 20.0)
  end
  begin
     id 5 
     name ltoes
     direction 1.53579e-011 -4.21994e-011 1   
     length 1.11848   
     axis -90 7.62852e-016 20   XYZ
    dof rx
    limits (-90.0 20.0)
  end
  begin
     id 6 
     name rhipjoint
     direction -0.664428 -0.664335 0.342336   
     length 2.55466  
     axis 0 0 0  XYZ 
  end
  begin
     id 7 
     name rfemur
     direction -0.34202 -0.939693 0   
     length 6.83172   
     axis 0 0 -20   XYZ
    dof rx ry rz
    limits (-160.0 20.0)
           (-70.0 70.0)
           (-70.0 60.0)
  end
  begin
     id 8 
     name rtibia
     direction -0.34202 -0.939693 0   
     length 7.62692   
     axis 0 0 -20   XYZ
    dof rx
    limits (-10.0 170.0)
 end
 begin
     id 9 
     name rfoot
     direction -0.0949276 -0.260811 0.960711   
     length 2.19684  
     axis -90 -7.62852e-016 -20   XYZ
    dof rx rz
    limits (-45.0 90.0)
           (-20.0 70.0)
  end
  begin
     id 10 
     name rtoes
     direction -1.53543e-011 -4.2183e-011 1   
     length 1.09848   
     axis -90 -7.62852e-016 -20   XYZ
    dof rx
    limits (-90.0 20.0)
  end
  begin
     id 11 
     name lowerback
     direction 0.0118782 0.999815 -0.0151555   
     length 2.15772   
     axis 0 0 0   XYZ
    dof rx ry rz
    limits (-20.0 45.0)
           (-30.0 30.0)
           (-30.0 30.0)
  end
  begin
     id 12 
     name upperback
     direction 0.00130825 0.999065 0.0432113   
     length 2.14863   
     axis 0 0 0   XYZ
    dof rx ry rz
    limits (-20.0 45.0)
           (-30.0 30.0)
           (-30.0 30.0)
  end
  begin
     id 13 
     name thorax
     direction -0.00347005 0.998773 0.0494011   
     length 2.14936   
     axis 0 0 0   XYZ
    dof rx ry rz
    limits (-20.0 45.0)
           (-30.0 30.0)
           (-30.0 30.0)
  end
  begin
     id 14 
     name lowerneck
     direction -0.0262159 0.99424 0.103921   
     length 1.69373   
     axis 0 0 0   XYZ
    dof rx ry rz
    limits (-20.0 45.0)
           (-30.0 30.0)
           (-30.0 30.0)
  end
  begin
     id 15 
     name upperneck
     direction 0.0353511 0.977394 -0.20845   
     length 1.70857   
     axis 0 0 0   XYZ
    dof rx ry rz
    limits (-20.0 45.0)
           (-30.0 30.0)
           (-30.0 30.0)
  end
  begin
     id 16
     name head
     direction 0.0139214 0.996594 -0.0812836  
     length 1.72777  
     axis 0 0 0   XYZ
    dof rx ry rz
    limits (-20.0 45.0)
           (-30.0 30.0)
           (-30.0 30.0)
  end
  begin
     id 17 
     name lclavicle
     direction 0.841247 0.537205 -0.0609508  
     length 3.55371  
     axis 0 0 0   XYZ
    dof ry rz
    limits (-20.0 10.0)
           (0.0 20.0)
  end
  begin
     id 18 
     name lhumerus
     direction 1 -4.48964e-011 1.60116e-018   
     length 4.91377   
     axis -180 -30 -90   XYZ
    dof rx ry rz
    limits (-60.0 90.0)
           (-90.0 90.0)
           (-90.0 90.0)
  end
  begin
     id 19
     name lradius
     direction 1 -4.48989e-011 -8.93847e-027   
     length 3.00291   
     axis -180 -30 -90   XYZ
    dof rx
    limits (-10.0 170.0)
  end
  begin
     id 20
     name lwrist
     direction 1 -4.48932e-011 -7.31504e-027   
     length 1.50145   
     axis 5.74121e-015 90 90   XYZ
    dof ry
    limits (-180.0 0.0)
 end
  begin
     id 21 
     name lhand
     direction 1 -4.48971e-011 -1.46301e-026   
     length 0.450922   
     axis 9.33524e-015 90 90   XYZ
    dof rx rz
    limits (-90.0 90.0)
           (-45.0 45.0)
  end
  begin
     id 22 
     name lfingers
     direction 1 -4.49039e-011 -2.92602e-026   
     length 0.363545   
     axis 1.86705e-014 90 90   XYZ
    dof rx
    limits (0.0 90.0)
  end
  begin
     id 23
     name lthumb
     direction 0.707107 -6.34941e-011 0.707107   
     length 0.52198   
     axis -90 45 2.85299e-015   XYZ
    dof rx rz
    limits (-45.0 45.0)
           (-45.0 45.0)
  end
  begin
     id 24 
     name rclavicle
     direction -0.825079 0.56158 -0.0622297   
     length 3.39909  
     axis 0 0 0   XYZ 
    dof ry rz
    limits (-10.0 20.0)
           (-20.0 0.0)
  end
  begin
     id 25 
     name rhumerus
     direction -1 -4.48965e-011 1.61691e-027  
     length 4.86725   
     axis -180 30 90   XYZ
    dof rx ry rz
    limits (-90.0 60.0)
           (-90.0 90.0)
           (-90.0 90.0)
  end
  begin
     id 26 
     name rradius
     direction -1 -4.48964e-011 -2.25776e-027   
     length 3.17144   
     axis -180 30 90   XYZ
    dof rx
    limits (-10.0 170.0)
  end
  begin
     id 27 
     name rwrist
     direction -1 -4.48961e-011 -7.31504e-027   
     length 1.58572   
     axis 5.74121e-015 -90 -90   XYZ
    dof ry
    limits (-180.0 0.0)
  end
  begin
     id 28
     name rhand
     direction -1 -4.49013e-011 -1.46301e-026   
     length 0.419368   
     axis 9.33524e-015 -90 -90   XYZ
    dof rx rz
    limits (-90.0 90.0)
           (-45.0 45.0)
  end
  begin
     id 29
     name rfingers
     direction -1 -4.489e-011 -2.92602e-026   
     length 0.338105   
     axis 1.86705e-014 -90 -90   XYZ
    dof rx
    limits (0.0 90.0)
  end
  begin
     id 30
     name rthumb
     direction -0.707107 -6.35022e-011 0.707107   
     length 0.485453   
     axis -90 -45 -2.85299e-015   XYZ
    dof rx rz
    limits (-45.0 45.0)
           (-45.0 45.0)
  end
:hierarchy
  begin
    root lhipjoint rhipjoint lowerback
    lhipjoint lfemur
    lfemur ltibia
    ltibia lfoot
    lfoot ltoes
    rhipjoint rfemur
    rfemur rtibia
    rtibia rfoot
    rfoot rtoes
    lowerback upperback
    upperback thorax
    thorax lowerneck lclavicle rclavicle
    lowerneck upperneck
    upperneck head
    lclavicle lhumerus
    lhumerus lradius
    lradius lwrist
    lwrist lhand lthumb
    lhand lfingers
    rclavicle rhumerus
    rhumerus rradius
    rradius rwrist
    rwrist rhand rthumb
    rhand rfingers
  end

#!OML:ASF H:\Swim 2\Project 1\Capture day 1\Session 1\male.ASF
:FULLY-SPECIFIED
:DEGREES
275
root 2.48885 15.0539 7.99996 107.961 8.99241 9.74092
lowerback -9.84292 0.956321 18.763
upperback -6.21065 -0.241263 -3.75204
thorax -1.45646 -0.805408 -14.9514
lowerneck -15.7007 0.963569 -1.22314
upperneck 49.5743 1.94414 1.31544
head 24.732 0.657319 1.52226
rclavicle -1.90833e-014 1.4971e-015
rhumerus 95.411 -20.966 -33.0119
rradius 34.1957
rwrist -20.3356
rhand -17.8267 -17.6305
rfingers 7.12502
rthumb 8.43754 -47.4419
lclavicle -1.90833e-014 1.4971e-015
lhumerus 72.5776 30.3886 -24.8713
lradius 36.6873
lwrist 45.059
lhand -34.8663 2.22299
lfingers 7.12502
lthumb -8.01571 32.051
rfemur -51.3918 -0.078486 20.3855
rtibia 47.9952
rfoot 16.9246 -1.34465
rtoes 4.27307
lfemur -49.7304 0.0748093 -23.5275
ltibia 42.3858
lfoot -6.61297 7.02133
ltoes -8.35898
276
root 2.48125 15.0555 7.97923 108.064 8.99748 9.2498
lowerback -9.8557 1.0008 18.7896
upperback -6.23788 -0.183746 -3.84338
thorax -1.46074 -0.781851 -15.0725
lowerneck -15.8691 0.963519 -1.09204
upperneck 49.4433 1.86595 1.33489
head 24.6691 0.651666 1.48329
rclavicle 2.62396e-014 -3.44954e-014
rhumerus 95.0226 -21.1862 -32.918
rradius 34.55
rwrist -21.8809
rhand -17.2685 -17.7462
rfingers 7.12502
rthumb 8.97622 -47.5353
lclavicle 2.62396e-014 -3.44954e-014
lhumerus 72.5222 30.3248 -24.4997
lradius 37.1215
lwrist 46.2725
lhand -34.9207 0.805422
lfingers 7.12502
lthumb -8.06819 30.6314
rfemur -51.182 -0.170606 20.5018
rtibia 48.5235
rfoot 17.271 -0.974703
rtoes 4.61232
lfemur -50.2329 -0.247133 -23.3877
ltibia 41.8504
lfoot -6.73104 7.47629
ltoes -7.9787
277
root 2.47347 15.0577 7.95915 108.14 8.98909 8.73881
lowerback -9.83984 1.04421 18.7908
upperback -6.25882 -0.12002 -3.93659
thorax -1.4701 -0.75417 -15.1797
lowerneck -16.0423 0.963866 -0.967883
upperneck 49.324 1.7799 1.37829
head 24.6216 0.643984 1.45848
rclavicle -7.95139e-016 7.46499e-014
rhumerus 94.6662 -21.394 -32.9131
rradius 34.8476
rwrist -23.3456
rhand -16.6919 -17.8867
rfingers 7.12502
rthumb 9.53259 -47.6511
lclavicle -7.95139e-016 7.46499e-014
lhumerus 72.3548 30.2174 -24.2696
lradius 37.5571
lwrist 47.8749
lhand -35.0893 -0.72018
lfingers 7.12502
lthumb -8.23099 29.0995
rfemur -50.9769 -0.260849 20.5831
rtibia 49.0452
rfoot 17.6001 -0.617964
rtoes 4.91039
lfemur -50.6739 -0.557424 -23.2432
ltibia 41.3379
lfoot -6.83179 7.84898
ltoes -7.66598
278
root 2.46528 15.0602 7.93943 108.196 8.96548 8.2031
lowerback -9.80398 1.08677 18.7687
upperback -6.27521 -0.0516876 -4.03258
thorax -1.48246 -0.723232 -15.2755
lowerneck -16.2255 0.959245 -0.844932
upperneck 49.2336 1.67631 1.44461
head 24.6114 0.631401 1.44458
rclavicle 7.15625e-015 -7.03045e-014
rhumerus 94.3169 -21.5977 -32.9281
rradius 35.0877
rwrist -24.7312
rhand -16.2821 -17.8117
rfingers 7.12502
rthumb 9.92796 -47.5576
lclavicle 7.15625e-015 -7.03045e-014
lhumerus 72.1203 30.0797 -24.1023
lradius 37.9446
lwrist 49.6694
lhand -35.3362 -2.18351
lfingers 7.12502
lthumb -8.4692 27.6267
rfemur -50.8042 -0.338756 20.6254
rtibia 49.5706
rfoot 17.9054 -0.255379
rtoes 5.10047
lfemur -51.059 -0.840715 -23.1068
ltibia 40.864
lfoot -6.90022 8.12889
ltoes -7.3512
279
root 2.45636 15.0632 7.91933 108.24 8.92622 7.64416
lowerback -9.75199 1.12767 18.7247
upperback -6.28896 0.0192594 -4.13134
thorax -1.49874 -0.690393 -15.3612
lowerneck -16.3989 0.955666 -0.743922
upperneck 49.1385 1.55979 1.5568
head 24.5905 0.614747 1.4579
rclavicle -7.15625e-015 3.87475e-015
rhumerus 93.9514 -21.799 -32.9147
rradius 35.2706
rwrist -25.94
rhand -16.1431 -17.4095
rfingers 7.12502
rthumb 10.0621 -47.1489
lclavicle -7.15625e-015 3.87475e-015
lhumerus 71.8248 29.8961 -23.9912
lradius 38.2545
lwrist 51.4057
lhand -35.6402 -3.43978
lfingers 7.12502
lthumb -8.76262 26.3583
rfemur -50.6883 -0.397127 20.6262
rtibia 50.1046
rfoot 18.2563 0.121584
rtoes 5.42512
lfemur -51.3957 -1.07772 -22.9954
ltibia 40.4449
lfoot -6.93863 8.31282
ltoes -7.15058
280
root 2.44646 15.0669 7.89868 108.265 8.86543 7.06777
lowerback -9.67689 1.16219 18.6534
upperback -6.29762 0.0879282 -4.23305
thorax -1.52183 -0.658103 -15.4338
lowerneck -16.5635 0.954477 -0.674175
upperneck 49.0424 1.42858 1.7315
head 24.5638 0.593146 1.50965
rclavicle -5.56597e-015 1.81166e-014
rhumerus 93.5822 -21.989 -32.8839
rradius 35.3975
rwrist -26.8768
rhand -16.2172 -16.8128
rfingers 7.12502
rthumb 9.99061 -46.5557
lclavicle -5.56597e-015 1.81166e-014
lhumerus 71.4935 29.6675 -23.9165
lradius 38.4657
lwrist 52.8791
lhand -35.9558 -4.42412
lfingers 7.12502
lthumb -9.06717 25.361
rfemur -50.628 -0.431648 20.5752
rtibia 50.6422
rfoot 18.6711 0.500114
rtoes 5.85339
lfemur -51.6697 -1.25337 -22.933
ltibia 40.0882
lfoot -6.97557 8.4169
ltoes -7.24559
281
root 2.43586 15.0711 7.8769 108.29 8.78739 6.49708
lowerback -9.60047 1.19213 18.5694
upperback -6.30595 0.151326 -4.33651
thorax -1.54685 -0.628323 -15.5014
lowerneck -16.716 0.957861 -0.632124
upperneck 48.9461 1.29308 1.95281
head 24.5311 0.569578 1.59234
rclavicle -3.18055e-015 3.86032e-014
rhumerus 93.2222 -22.1553 -32.8551
rradius 35.4714
rwrist -27.5
rhand -16.4167 -16.1496
rfingers 7.12502
rthumb 9.79819 -45.9016
lclavicle -3.18055e-015 3.86032e-014
lhumerus 71.1336 29.3848 -23.8863
lradius 38.583
lwrist 53.9491
lhand -36.2415 -5.03587
lfingers 7.12502
lthumb -9.34278 24.7371
rfemur -50.6457 -0.456528 20.4833
rtibia 51.1693
rfoot 19.1816 0.900158
rtoes 6.41055
lfemur -51.8977 -1.35867 -22.9328
ltibia 39.8021
lfoot -7.04222 8.43115
ltoes -7.69543
282
root 2.42487 15.0762 7.85398 108.239 8.67687 6.00503
lowerback -9.44326 1.1783 18.4857
upperback -6.28997 0.168648 -4.4424
thorax -1.60786 -0.624376 -15.5759
lowerneck -16.8693 0.975161 -0.617836
upperneck 48.8595 1.17578 2.20674
head 24.5091 0.550137 1.70413
rclavicle 1.15295e-014 -1.02824e-014
rhumerus 92.8932 -22.2966 -32.8451
rradius 35.4945
rwrist -27.8114
rhand -16.6656 -15.557
rfingers 7.12502
rthumb 9.55797 -45.3202
lclavicle 1.15295e-014 -1.02824e-014
lhumerus 70.7551 29.0428 -23.8836
lradius 38.616
lwrist 54.5561
lhand -36.4442 -5.35735
lfingers 7.12502
lthumb -9.53838 24.4068
rfemur -50.6364 -0.526413 20.3486
rtibia 51.6648
rfoot 19.7896 1.32123
rtoes 6.94809
lfemur -51.9789 -1.45599 -23.0001
ltibia 39.5862
lfoot -7.16931 8.33853
ltoes -8.45864
283
root 2.41348 15.0822 7.83043 108.114 8.54574 5.5871
lowerback -9.20857 1.12757 18.4085
upperback -6.24907 0.14791 -4.54755
thorax -1.69954 -0.641589 -15.6563
lowerneck -17.012 0.993173 -0.612405
upperneck 48.7619 1.06488 2.4578
head 24.4713 0.531886 1.81657
rclavicle -1.98785e-015 7.70586e-014
rhumerus 92.6257 -22.4198 -32.899
rradius 35.445
rwrist -27.7633
rhand -16.886 -15.1331
rfingers 7.12502
rthumb 9.34535 -44.906
lclavicle -1.98785e-015 7.70586e-014
lhumerus 70.3941 28.6299 -23.8435
lradius 38.5603
lwrist 54.6508
lhand -36.5393 -5.41853
lfingers 7.12502
lthumb -9.63019 24.3414
rfemur -50.5975 -0.627358 20.1779
rtibia 52.1028
rfoot 20.516 1.73638
rtoes 7.50876
lfemur -51.9178 -1.54397 -23.1261
ltibia 39.4474
lfoot -7.31247 8.15309
ltoes -9.43471
